<svg width="219" height="115" viewBox="0 0 219 115" fill="none" xmlns="http://www.w3.org/2000/svg">
<g clip-path="url(#clip0_1_3)">
<path d="M166.976 57.5C166.976 89.2564 141.232 115 109.476 115C77.7196 115 51.976 89.2564 51.976 57.5C51.976 25.7436 77.7196 0 109.476 0C141.232 0 166.976 25.7436 166.976 57.5Z" fill="#D0680C"/>
<path d="M21.744 77.768C20.368 77.768 19.248 77.4 18.384 76.664C17.552 75.896 16.864 74.968 16.32 73.88C15.808 72.76 15.36 71.688 14.976 70.664L13.68 66.728C13.488 66.216 13.264 65.688 13.008 65.144C12.752 64.568 12.416 64.04 12 63.56C11.616 63.08 11.12 62.696 10.512 62.408C9.936 62.12 9.232 61.976 8.4 61.976H7.008L6.96 59.672C7.28 59.608 7.584 59.544 7.872 59.48C8.192 59.416 8.48 59.336 8.736 59.24C10.08 58.824 11.248 58.168 12.24 57.272C13.232 56.376 14.048 55.368 14.688 54.248C15.328 53.128 15.808 51.976 16.128 50.792C16.448 49.608 16.608 48.52 16.608 47.528C16.608 46.536 16.496 45.72 16.272 45.08C16.08 44.408 15.904 43.944 15.744 43.688C16.224 43.496 16.672 43.352 17.088 43.256C17.504 43.16 17.968 43.112 18.48 43.112C19.152 43.112 19.84 43.24 20.544 43.496C21.28 43.72 21.888 44.184 22.368 44.888C22.848 45.56 23.088 46.584 23.088 47.96C23.088 49.496 22.704 51.08 21.936 52.712C21.168 54.312 19.936 55.8 18.24 57.176C16.576 58.552 14.4 59.688 11.712 60.584L11.808 60.056C14.08 60.152 15.792 60.584 16.944 61.352C18.096 62.12 18.976 63.208 19.584 64.616L21.696 69.512C22.272 70.632 22.736 71.416 23.088 71.864C23.472 72.312 23.936 72.568 24.48 72.632C24.672 72.664 24.848 72.648 25.008 72.584C25.2 72.52 25.408 72.424 25.632 72.296C25.888 73 26.016 73.608 26.016 74.12C26.016 75.112 25.632 75.976 24.864 76.712C24.096 77.416 23.056 77.768 21.744 77.768ZM4.8 77.72C3.712 77.72 2.8 77.416 2.064 76.808C1.328 76.2 0.96 75.368 0.96 74.312V50.552C0.96 49.624 0.896 48.632 0.768 47.576C0.672 46.488 0.416 45.4 0 44.312C0.288 44.056 0.768 43.752 1.44 43.4C2.112 43.048 2.912 42.872 3.84 42.872C4.928 42.872 5.824 43.176 6.528 43.784C7.264 44.36 7.632 45.176 7.632 46.232L7.68 69.992C7.68 70.888 7.728 71.896 7.824 73.016C7.952 74.104 8.224 75.176 8.64 76.232C8.352 76.488 7.872 76.792 7.2 77.144C6.528 77.528 5.728 77.72 4.8 77.72Z" fill="#FAFAFA"/>
<path d="M46.1115 51.512C47.1675 51.512 48.0635 51.848 48.7995 52.52C49.5355 53.16 49.9035 54.072 49.9035 55.256L49.9515 70.28C49.9515 71.176 50.0475 71.816 50.2395 72.2C50.4635 72.584 50.7835 72.776 51.1995 72.776C51.3595 72.776 51.5675 72.744 51.8235 72.68C52.0795 72.616 52.2875 72.472 52.4475 72.248C52.8635 72.888 53.0715 73.56 53.0715 74.264C53.0715 75.256 52.7355 76.072 52.0635 76.712C51.3915 77.352 50.4155 77.672 49.1355 77.672C47.6315 77.672 46.4315 77.16 45.5355 76.136C44.6395 75.112 44.1915 73.56 44.1915 71.48V69.992L45.0075 68.552C44.7515 70.472 44.2715 72.12 43.5675 73.496C42.8955 74.84 41.9675 75.88 40.7835 76.616C39.5995 77.352 38.1275 77.72 36.3675 77.72C33.8075 77.72 31.9035 76.984 30.6555 75.512C29.4075 74.04 28.7835 71.56 28.7835 68.072V59.24C28.7835 58.504 28.7195 57.544 28.5915 56.36C28.4955 55.176 28.2395 54.04 27.8235 52.952C28.2715 52.6 28.7995 52.28 29.4075 51.992C30.0155 51.672 30.7515 51.512 31.6155 51.512C32.7035 51.512 33.5995 51.816 34.3035 52.424C35.0395 53 35.4075 53.832 35.4075 54.92V67.016C35.4075 68.68 35.4875 70.088 35.6475 71.24C35.8395 72.392 36.1595 73.256 36.6075 73.832C37.0875 74.408 37.7595 74.696 38.6235 74.696C39.3595 74.696 40.0155 74.472 40.5915 74.024C41.1675 73.544 41.6635 72.84 42.0795 71.912C42.5275 70.952 42.8635 69.768 43.0875 68.36C43.3115 66.952 43.4235 65.32 43.4235 63.464C43.4235 61.928 43.4075 60.632 43.3755 59.576C43.3755 58.52 43.3435 57.624 43.2795 56.888C43.2155 56.12 43.1035 55.432 42.9435 54.824C42.8155 54.216 42.6075 53.576 42.3195 52.904C42.6075 52.648 43.0715 52.36 43.7115 52.04C44.3835 51.688 45.1835 51.512 46.1115 51.512Z" fill="#FAFAFA"/>
<path d="M61.0466 77.528C60.0546 77.528 59.1586 77.208 58.3586 76.568C57.5906 75.896 57.2066 74.968 57.2066 73.784V58.952C57.2066 58.024 57.0946 57.368 56.8706 56.984C56.6786 56.6 56.3746 56.408 55.9586 56.408C55.7986 56.408 55.5906 56.44 55.3346 56.504C55.0786 56.568 54.8706 56.728 54.7106 56.984C54.2946 56.344 54.0866 55.656 54.0866 54.92C54.0866 53.928 54.4226 53.112 55.0946 52.472C55.7666 51.832 56.7426 51.512 58.0226 51.512C59.5586 51.512 60.7746 52.056 61.6706 53.144C62.5986 54.232 63.0306 55.912 62.9666 58.184V59.432L62.3906 58.952C62.8386 56.424 63.6226 54.552 64.7426 53.336C65.8946 52.12 67.3986 51.512 69.2546 51.512C71.0786 51.512 72.5666 52.008 73.7186 53C74.9026 53.96 75.4946 55.304 75.4946 57.032C75.4946 58.28 75.1106 59.32 74.3426 60.152C73.5746 60.952 72.6146 61.368 71.4626 61.4C70.0546 61.4 69.0466 61.048 68.4386 60.344C68.7906 59.704 69.0146 59.16 69.1106 58.712C69.2386 58.232 69.3026 57.672 69.3026 57.032C69.3026 56.232 69.1426 55.624 68.8226 55.208C68.5026 54.76 68.0066 54.536 67.3346 54.536C66.5986 54.536 65.9586 54.952 65.4146 55.784C64.8706 56.584 64.4546 57.816 64.1666 59.48C63.8786 61.144 63.7346 63.224 63.7346 65.72C63.7346 67.224 63.7346 68.504 63.7346 69.56C63.7666 70.584 63.8146 71.464 63.8786 72.2C63.9426 72.936 64.0386 73.608 64.1666 74.216C64.3266 74.824 64.5506 75.448 64.8386 76.088C64.5506 76.344 64.0706 76.648 63.3986 77C62.7586 77.32 61.9746 77.496 61.0466 77.528Z" fill="#FAFAFA"/>
<path d="M97.6264 77.48C95.9624 77.48 94.6504 76.888 93.6904 75.704C92.7624 74.488 92.2984 72.344 92.2984 69.272V67.448L93.4504 67.688C93.1304 69.448 92.5224 71.08 91.6264 72.584C90.7304 74.056 89.5784 75.24 88.1704 76.136C86.7624 77.032 85.0984 77.48 83.1784 77.48C81.3544 77.48 79.8344 77 78.6184 76.04C77.4344 75.08 76.8424 73.672 76.8424 71.816C76.8424 70.28 77.2584 68.984 78.0904 67.928C78.9544 66.84 80.0264 65.96 81.3064 65.288C82.6184 64.616 83.9304 64.088 85.2424 63.704C86.5224 63.352 87.7224 63.112 88.8424 62.984C89.9944 62.824 91.0184 62.728 91.9144 62.696V61.496C91.9144 58.904 91.6264 56.952 91.0504 55.64C90.4744 54.328 89.4344 53.672 87.9304 53.672C87.3224 53.672 86.7624 53.8 86.2504 54.056C85.7704 54.28 85.3864 54.648 85.0984 55.16C84.8424 55.672 84.7144 56.36 84.7144 57.224C84.7144 57.864 84.8264 58.52 85.0504 59.192C85.2744 59.864 85.7224 60.392 86.3944 60.776C86.0104 61.16 85.4984 61.448 84.8584 61.64C84.2504 61.832 83.5944 61.928 82.8904 61.928C81.3224 61.928 80.1064 61.496 79.2424 60.632C78.4104 59.768 77.9944 58.712 77.9944 57.464C77.9944 55.544 78.9224 54.072 80.7784 53.048C82.6664 52.024 85.1784 51.512 88.3144 51.512C91.8984 51.512 94.5224 52.312 96.1864 53.912C97.8504 55.512 98.6824 58.184 98.6824 61.928V70.04C98.6824 71.736 99.2104 72.584 100.266 72.584C100.426 72.584 100.634 72.536 100.89 72.44C101.178 72.344 101.402 72.184 101.562 71.96C101.786 72.28 101.946 72.632 102.042 73.016C102.138 73.4 102.186 73.736 102.186 74.024C102.186 74.952 101.77 75.768 100.938 76.472C100.138 77.144 99.0344 77.48 97.6264 77.48ZM86.6344 73.208C87.2424 73.144 87.8664 72.904 88.5064 72.488C89.1464 72.04 89.7384 71.448 90.2824 70.712C90.8264 69.944 91.2584 69.064 91.5784 68.072C91.9304 67.08 92.1064 65.992 92.1064 64.808C91.4984 64.808 90.8744 64.84 90.2344 64.904C89.5944 64.936 88.9704 65.032 88.3624 65.192C87.7864 65.352 87.2424 65.576 86.7304 65.864C85.9624 66.28 85.3224 66.872 84.8104 67.64C84.3304 68.376 84.0904 69.224 84.0904 70.184C84.0904 70.984 84.2824 71.72 84.6664 72.392C85.0824 73.032 85.7384 73.304 86.6344 73.208Z" fill="#FAFAFA"/>
<path d="M115.596 77.72C113.004 77.72 110.86 77.432 109.164 76.856C107.468 76.248 106.204 75.432 105.372 74.408C104.54 73.384 104.124 72.232 104.124 70.952C104.124 70.216 104.284 69.544 104.604 68.936C104.956 68.328 105.532 67.88 106.332 67.592C107.132 67.272 108.236 67.224 109.644 67.448C109.548 67.832 109.5 68.248 109.5 68.696C109.532 69.144 109.58 69.576 109.644 69.992C109.804 70.824 110.14 71.656 110.652 72.488C111.164 73.32 111.9 74.008 112.86 74.552C113.852 75.096 115.084 75.368 116.556 75.368C117.964 75.368 119.18 74.984 120.204 74.216C121.228 73.416 121.74 72.184 121.74 70.52C121.74 69.432 121.5 68.488 121.02 67.688C120.54 66.888 119.804 66.136 118.812 65.432C117.852 64.728 116.652 63.976 115.212 63.176C113.164 61.992 111.404 60.872 109.932 59.816C108.46 58.728 107.324 57.528 106.524 56.216C105.724 54.872 105.324 53.272 105.324 51.416C105.324 49.336 105.852 47.672 106.908 46.424C107.964 45.176 109.356 44.264 111.084 43.688C112.844 43.112 114.748 42.824 116.796 42.824C119.836 42.824 122.316 43.288 124.236 44.216C126.156 45.112 127.116 46.504 127.116 48.392C127.116 49.192 126.86 49.896 126.348 50.504C125.868 51.112 124.972 51.432 123.66 51.464C123.116 51.528 122.508 51.496 121.836 51.368C121.868 50.856 121.836 50.36 121.74 49.88C121.676 49.368 121.564 48.904 121.404 48.488C121.244 47.88 120.94 47.32 120.492 46.808C120.076 46.296 119.5 45.88 118.764 45.56C118.028 45.24 117.116 45.08 116.028 45.08C115.388 45.08 114.716 45.192 114.012 45.416C113.308 45.64 112.716 46.04 112.236 46.616C111.756 47.192 111.516 48.008 111.516 49.064C111.516 50.024 111.724 50.904 112.14 51.704C112.556 52.504 113.292 53.32 114.348 54.152C115.436 54.952 116.956 55.896 118.908 56.984C120.412 57.784 121.868 58.68 123.276 59.672C124.716 60.664 125.9 61.848 126.828 63.224C127.756 64.568 128.22 66.216 128.22 68.168C128.22 69.48 127.964 70.712 127.452 71.864C126.94 73.016 126.156 74.04 125.1 74.936C124.044 75.8 122.716 76.488 121.116 77C119.548 77.48 117.708 77.72 115.596 77.72Z" fill="#FAFAFA"/>
<path d="M150.221 51.512C151.277 51.512 152.173 51.848 152.909 52.52C153.645 53.16 154.013 54.072 154.013 55.256L154.061 70.28C154.061 71.176 154.157 71.816 154.349 72.2C154.573 72.584 154.893 72.776 155.309 72.776C155.469 72.776 155.677 72.744 155.933 72.68C156.189 72.616 156.397 72.472 156.557 72.248C156.973 72.888 157.181 73.56 157.181 74.264C157.181 75.256 156.845 76.072 156.173 76.712C155.501 77.352 154.525 77.672 153.245 77.672C151.741 77.672 150.541 77.16 149.645 76.136C148.749 75.112 148.301 73.56 148.301 71.48V69.992L149.117 68.552C148.861 70.472 148.381 72.12 147.677 73.496C147.005 74.84 146.077 75.88 144.893 76.616C143.709 77.352 142.237 77.72 140.477 77.72C137.917 77.72 136.013 76.984 134.765 75.512C133.517 74.04 132.893 71.56 132.893 68.072V59.24C132.893 58.504 132.829 57.544 132.701 56.36C132.605 55.176 132.349 54.04 131.933 52.952C132.381 52.6 132.909 52.28 133.517 51.992C134.125 51.672 134.861 51.512 135.725 51.512C136.813 51.512 137.709 51.816 138.413 52.424C139.149 53 139.517 53.832 139.517 54.92V67.016C139.517 68.68 139.597 70.088 139.757 71.24C139.949 72.392 140.269 73.256 140.717 73.832C141.197 74.408 141.869 74.696 142.733 74.696C143.469 74.696 144.125 74.472 144.701 74.024C145.277 73.544 145.773 72.84 146.189 71.912C146.637 70.952 146.973 69.768 147.197 68.36C147.421 66.952 147.533 65.32 147.533 63.464C147.533 61.928 147.517 60.632 147.485 59.576C147.485 58.52 147.453 57.624 147.389 56.888C147.325 56.12 147.213 55.432 147.053 54.824C146.925 54.216 146.717 53.576 146.429 52.904C146.717 52.648 147.181 52.36 147.821 52.04C148.493 51.688 149.293 51.512 150.221 51.512Z" fill="#FAFAFA"/>
<path d="M168.412 77.672C166.332 77.672 164.604 77.432 163.228 76.952C161.884 76.472 160.876 75.816 160.204 74.984C159.532 74.152 159.196 73.192 159.196 72.104C159.196 71.528 159.34 70.952 159.628 70.376C159.916 69.768 160.412 69.288 161.116 68.936C161.82 68.584 162.796 68.52 164.044 68.744C163.948 69.192 163.9 69.624 163.9 70.04C163.932 70.456 164.012 70.888 164.14 71.336C164.3 72.296 164.78 73.208 165.58 74.072C166.412 74.904 167.66 75.32 169.324 75.32C170.476 75.32 171.452 75.096 172.252 74.648C173.052 74.168 173.452 73.432 173.452 72.44C173.452 71.608 173.18 70.92 172.636 70.376C172.124 69.8 171.436 69.288 170.572 68.84C169.74 68.392 168.844 67.944 167.884 67.496C166.668 66.92 165.436 66.28 164.188 65.576C162.972 64.84 161.964 63.928 161.164 62.84C160.364 61.72 159.964 60.296 159.964 58.568C159.964 56.872 160.412 55.512 161.308 54.488C162.204 53.432 163.388 52.664 164.86 52.184C166.332 51.704 167.916 51.464 169.612 51.464C172.172 51.464 174.284 51.848 175.948 52.616C177.612 53.384 178.444 54.552 178.444 56.12C178.444 56.856 178.204 57.544 177.724 58.184C177.276 58.792 176.46 59.112 175.276 59.144C174.956 59.176 174.652 59.176 174.364 59.144C174.108 59.112 173.852 59.08 173.596 59.048C173.628 58.6 173.612 58.12 173.548 57.608C173.516 57.064 173.388 56.584 173.164 56.168C172.908 55.432 172.46 54.84 171.82 54.392C171.18 53.944 170.364 53.72 169.372 53.72C168.764 53.72 168.188 53.816 167.644 54.008C167.132 54.168 166.7 54.44 166.348 54.824C166.028 55.208 165.868 55.704 165.868 56.312C165.868 57.144 166.14 57.88 166.684 58.52C167.228 59.128 167.948 59.672 168.844 60.152C169.74 60.632 170.684 61.128 171.676 61.64C172.604 62.088 173.532 62.568 174.46 63.08C175.388 63.56 176.236 64.12 177.004 64.76C177.804 65.4 178.428 66.136 178.876 66.968C179.356 67.768 179.596 68.728 179.596 69.848C179.596 71.128 179.228 72.376 178.492 73.592C177.756 74.776 176.572 75.752 174.94 76.52C173.308 77.288 171.132 77.672 168.412 77.672Z" fill="#FAFAFA"/>
<path d="M187.639 77.72C186.551 77.72 185.639 77.384 184.903 76.712C184.167 76.04 183.799 75.128 183.799 73.976V45.224C183.767 44.136 184.039 43.32 184.615 42.776C185.223 42.232 185.975 41.928 186.871 41.864C187.895 41.768 188.823 41.912 189.655 42.296C190.487 42.68 191.063 43 191.383 43.256C190.903 44.824 190.599 46.584 190.471 48.536C190.343 50.456 190.263 52.616 190.231 55.016V59.192L189.127 60.68C189.383 58.76 189.831 57.128 190.471 55.784C191.143 54.408 192.055 53.352 193.207 52.616C194.359 51.88 195.783 51.512 197.479 51.512C200.135 51.512 202.087 52.312 203.335 53.912C204.583 55.512 205.207 57.912 205.207 61.112V69.992C205.207 70.696 205.255 71.656 205.351 72.872C205.479 74.056 205.751 75.176 206.167 76.232C205.751 76.616 205.223 76.952 204.583 77.24C203.975 77.56 203.255 77.72 202.423 77.72C201.335 77.72 200.423 77.416 199.687 76.808C198.983 76.2 198.631 75.368 198.631 74.312V62.168C198.631 59.736 198.407 57.864 197.959 56.552C197.543 55.208 196.631 54.536 195.223 54.536C194.487 54.536 193.815 54.776 193.207 55.256C192.599 55.704 192.071 56.408 191.623 57.368C191.207 58.296 190.871 59.464 190.615 60.872C190.391 62.248 190.279 63.864 190.279 65.72C190.279 67.288 190.279 68.6 190.279 69.656C190.311 70.712 190.359 71.624 190.423 72.392C190.487 73.128 190.583 73.8 190.711 74.408C190.871 75.016 191.095 75.64 191.383 76.28C191.095 76.536 190.631 76.84 189.991 77.192C189.351 77.544 188.567 77.72 187.639 77.72Z" fill="#FAFAFA"/>
<path d="M214.629 49.352C213.573 49.352 212.677 49 211.941 48.296C211.237 47.56 210.885 46.68 210.885 45.656C210.885 44.6 211.237 43.72 211.941 43.016C212.677 42.28 213.573 41.912 214.629 41.912C215.653 41.912 216.517 42.28 217.221 43.016C217.957 43.72 218.325 44.6 218.325 45.656C218.325 46.68 217.957 47.56 217.221 48.296C216.517 49 215.653 49.352 214.629 49.352ZM218.133 69.992C218.133 70.888 218.181 71.896 218.277 73.016C218.405 74.104 218.677 75.176 219.093 76.232C218.805 76.488 218.325 76.792 217.653 77.144C217.013 77.528 216.229 77.72 215.301 77.72C214.277 77.72 213.397 77.416 212.661 76.808C211.957 76.2 211.605 75.368 211.605 74.312V59.192C211.605 58.264 211.541 57.256 211.413 56.168C211.317 55.08 211.061 53.992 210.645 52.904C210.933 52.648 211.397 52.344 212.037 51.992C212.677 51.64 213.445 51.464 214.341 51.464C215.429 51.464 216.325 51.768 217.029 52.376C217.733 52.952 218.085 53.784 218.085 54.872L218.133 69.992Z" fill="#FAFAFA"/>
</g>
<defs>
<clipPath id="clip0_1_3">
<rect width="219" height="115" fill="white"/>
</clipPath>
</defs>
</svg>
